<?xml version="1.0" encoding="UTF-8"?><svg id="Layer_1" xmlns="http://www.w3.org/2000/svg" viewBox="0 0 32 32"><defs><style>.cls-1{fill:#fff;}.cls-2{fill:#333;}</style></defs><rect class="cls-2" x=".75" y=".93" width="30.43" height="30.26" rx=".72" ry=".72"/><g><path class="cls-1" d="M17.9,5.55H8.82c-3.14,0-5.69,2.55-5.69,5.69,0,2.61,1.77,4.81,4.17,5.48,0,0,0,0,0,0,0,0,0,0,0,0-1.66,4.38-2.82,7.95-3.31,9.33-.11,.32,.12,.67,.46,.67,2.28,0,13.31,0,13.31,0,6.23,.13,10.91-4.97,10.66-11.04-.24-5.61-4.86-10.1-10.52-10.13Zm-5.01,11.38v8.48H5.68c-.16,0-.26-.16-.21-.3,.87-2.24,2.38-6.13,3.16-8.18m4.25-1.32h-4.07c-2.41,0-4.37-1.96-4.37-4.37s1.96-4.37,4.37-4.37h4.07V15.61Zm4.74,9.8h-3.26c-.09,0-.16-.07-.16-.16V7.04c0-.09,.07-.17,.17-.17h3.46c5.06,0,9.18,4.07,9.26,9.11s-4.29,9.42-9.48,9.42Z"/><circle class="cls-1" cx="19.99" cy="16.48" r=".67"/><circle class="cls-1" cx="9.33" cy="11.24" r=".67"/></g></svg>